<mxfile host="app.diagrams.net" modified="2023-12-06T06:51:47.975Z" agent="Mozilla/5.0 (Windows NT 10.0; Win64; x64) AppleWebKit/537.36 (KHTML, like Gecko) Chrome/119.0.0.0 Safari/537.36 Edg/119.0.0.0" etag="dCjbrulQ11wl6EHRJ3yl" version="22.1.5" type="github">
  <diagram name="Page-1" id="YEE1dYvo02h8DHqpAgX5">
    <mxGraphModel dx="1002" dy="569" grid="1" gridSize="10" guides="1" tooltips="1" connect="1" arrows="1" fold="1" page="1" pageScale="1" pageWidth="850" pageHeight="1100" math="0" shadow="0">
      <root>
        <mxCell id="0" />
        <mxCell id="1" parent="0" />
        <mxCell id="mov2XXkEbCFYCPUV6W04-3" value="" style="edgeStyle=orthogonalEdgeStyle;rounded=0;orthogonalLoop=1;jettySize=auto;html=1;" edge="1" parent="1" source="mov2XXkEbCFYCPUV6W04-1" target="mov2XXkEbCFYCPUV6W04-2">
          <mxGeometry relative="1" as="geometry" />
        </mxCell>
        <mxCell id="mov2XXkEbCFYCPUV6W04-5" value="" style="edgeStyle=orthogonalEdgeStyle;rounded=0;orthogonalLoop=1;jettySize=auto;html=1;" edge="1" parent="1" source="mov2XXkEbCFYCPUV6W04-1" target="mov2XXkEbCFYCPUV6W04-4">
          <mxGeometry relative="1" as="geometry" />
        </mxCell>
        <mxCell id="mov2XXkEbCFYCPUV6W04-7" value="" style="edgeStyle=orthogonalEdgeStyle;rounded=0;orthogonalLoop=1;jettySize=auto;html=1;" edge="1" parent="1" source="mov2XXkEbCFYCPUV6W04-1" target="mov2XXkEbCFYCPUV6W04-6">
          <mxGeometry relative="1" as="geometry" />
        </mxCell>
        <mxCell id="mov2XXkEbCFYCPUV6W04-1" value="Product" style="whiteSpace=wrap;html=1;align=center;" vertex="1" parent="1">
          <mxGeometry x="190" y="260" width="100" height="40" as="geometry" />
        </mxCell>
        <mxCell id="mov2XXkEbCFYCPUV6W04-2" value="ID" style="ellipse;whiteSpace=wrap;html=1;align=center;fontStyle=4;" vertex="1" parent="1">
          <mxGeometry x="190" y="160" width="100" height="40" as="geometry" />
        </mxCell>
        <mxCell id="mov2XXkEbCFYCPUV6W04-4" value="Name" style="ellipse;whiteSpace=wrap;html=1;align=center;" vertex="1" parent="1">
          <mxGeometry x="30" y="260" width="100" height="40" as="geometry" />
        </mxCell>
        <mxCell id="mov2XXkEbCFYCPUV6W04-6" value="Quantity" style="ellipse;whiteSpace=wrap;html=1;align=center;" vertex="1" parent="1">
          <mxGeometry x="190" y="360" width="100" height="40" as="geometry" />
        </mxCell>
        <mxCell id="mov2XXkEbCFYCPUV6W04-10" value="" style="edgeStyle=orthogonalEdgeStyle;rounded=0;orthogonalLoop=1;jettySize=auto;html=1;" edge="1" parent="1" source="mov2XXkEbCFYCPUV6W04-8" target="mov2XXkEbCFYCPUV6W04-9">
          <mxGeometry relative="1" as="geometry" />
        </mxCell>
        <mxCell id="mov2XXkEbCFYCPUV6W04-26" style="edgeStyle=orthogonalEdgeStyle;rounded=0;orthogonalLoop=1;jettySize=auto;html=1;exitX=0.75;exitY=0;exitDx=0;exitDy=0;entryX=0.5;entryY=1;entryDx=0;entryDy=0;" edge="1" parent="1" source="mov2XXkEbCFYCPUV6W04-8" target="mov2XXkEbCFYCPUV6W04-11">
          <mxGeometry relative="1" as="geometry" />
        </mxCell>
        <mxCell id="mov2XXkEbCFYCPUV6W04-27" value="" style="edgeStyle=orthogonalEdgeStyle;rounded=0;orthogonalLoop=1;jettySize=auto;html=1;" edge="1" parent="1" source="mov2XXkEbCFYCPUV6W04-8" target="mov2XXkEbCFYCPUV6W04-13">
          <mxGeometry relative="1" as="geometry" />
        </mxCell>
        <mxCell id="mov2XXkEbCFYCPUV6W04-8" value="Component" style="whiteSpace=wrap;html=1;align=center;" vertex="1" parent="1">
          <mxGeometry x="400" y="260" width="100" height="40" as="geometry" />
        </mxCell>
        <mxCell id="mov2XXkEbCFYCPUV6W04-9" value="ID" style="ellipse;whiteSpace=wrap;html=1;align=center;fontStyle=4;" vertex="1" parent="1">
          <mxGeometry x="400" y="160" width="100" height="40" as="geometry" />
        </mxCell>
        <mxCell id="mov2XXkEbCFYCPUV6W04-11" value="Name" style="ellipse;whiteSpace=wrap;html=1;align=center;" vertex="1" parent="1">
          <mxGeometry x="540" y="160" width="100" height="40" as="geometry" />
        </mxCell>
        <mxCell id="mov2XXkEbCFYCPUV6W04-13" value="Description" style="ellipse;whiteSpace=wrap;html=1;align=center;" vertex="1" parent="1">
          <mxGeometry x="400" y="360" width="100" height="40" as="geometry" />
        </mxCell>
        <mxCell id="mov2XXkEbCFYCPUV6W04-23" value="" style="edgeStyle=entityRelationEdgeStyle;fontSize=12;html=1;endArrow=ERoneToMany;startArrow=ERzeroToOne;rounded=0;entryX=0;entryY=0.5;entryDx=0;entryDy=0;exitX=1;exitY=0.5;exitDx=0;exitDy=0;" edge="1" parent="1" source="mov2XXkEbCFYCPUV6W04-1" target="mov2XXkEbCFYCPUV6W04-8">
          <mxGeometry width="100" height="100" relative="1" as="geometry">
            <mxPoint x="340" y="430" as="sourcePoint" />
            <mxPoint x="440" y="330" as="targetPoint" />
          </mxGeometry>
        </mxCell>
        <mxCell id="mov2XXkEbCFYCPUV6W04-24" value="Supplier" style="whiteSpace=wrap;html=1;align=center;" vertex="1" parent="1">
          <mxGeometry x="630" y="260" width="100" height="40" as="geometry" />
        </mxCell>
        <mxCell id="mov2XXkEbCFYCPUV6W04-25" value="" style="edgeStyle=entityRelationEdgeStyle;fontSize=12;html=1;endArrow=ERzeroToMany;endFill=1;startArrow=ERzeroToMany;rounded=0;entryX=0;entryY=0.5;entryDx=0;entryDy=0;exitX=1;exitY=0.5;exitDx=0;exitDy=0;" edge="1" parent="1" source="mov2XXkEbCFYCPUV6W04-8" target="mov2XXkEbCFYCPUV6W04-24">
          <mxGeometry width="100" height="100" relative="1" as="geometry">
            <mxPoint x="450" y="340" as="sourcePoint" />
            <mxPoint x="610" y="450" as="targetPoint" />
            <Array as="points">
              <mxPoint x="480" y="360" />
              <mxPoint x="490" y="360" />
              <mxPoint x="500" y="380" />
            </Array>
          </mxGeometry>
        </mxCell>
      </root>
    </mxGraphModel>
  </diagram>
</mxfile>
